<svg xmlns="http://www.w3.org/2000/svg" width="512" height="512" viewBox="0 0 512 512" fill="none"><path d="M256 60c-83 0-150 64-150 142 0 54 32 100 78 124v46c0 16 13 30 30 30h84c17 0 30-14 30-30v-48c42-26 70-70 70-122 0-78-65-142-142-142z" stroke="#000" stroke-width="24" fill="none" stroke-linejoin="round"/><path d="M236 392h40" stroke="#000" stroke-width="32" stroke-linecap="round"/><path d="M244 332c0-14 12-24 24-34 10-8 18-16 18-28 0-18-14-32-30-32s-30 14-30 32" stroke="#000" stroke-width="28" stroke-linecap="round" stroke-linejoin="round"/><circle cx="256" cy="446" r="28" fill="#000"/></svg>